<svg xmlns="http://www.w3.org/2000/svg" width="36.473" height="36.473" viewBox="0 0 36.473 36.473">
    <defs>
        <style>
            .cls-1{fill:url(#linear-gradient)}
        </style>
        <linearGradient id="linear-gradient" x1=".106" x2="1" y1=".624" y2=".629" gradientUnits="objectBoundingBox">
            <stop offset="0" stop-color="#ff4f37"/>
            <stop offset="1" stop-color="#eb321a"/>
        </linearGradient>
    </defs>
    <g id="email" transform="translate(-.001 -.004)">
        <g id="Group_151" data-name="Group 151" transform="translate(.001 .004)">
            <g id="Group_150" data-name="Group 150">
                <path id="Path_324" d="M36.466 13.948a.575.575 0 0 0-.025-.123.608.608 0 0 0-.035-.1.545.545 0 0 0-.061-.093.573.573 0 0 0-.081-.094c-.01-.008-.014-.02-.024-.029l-5.846-4.54V4.257a1.824 1.824 0 0 0-1.824-1.824h-6.587L19.345.386a1.8 1.8 0 0 0-2.217 0L14.49 2.434H7.9a1.824 1.824 0 0 0-1.822 1.823v4.706L.234 13.5c-.01.009-.015.02-.024.029a.57.57 0 0 0-.081.094.543.543 0 0 0-.061.093.6.6 0 0 0-.035.1.576.576 0 0 0-.025.122c0 .013-.007.024-.007.036v20.679a1.8 1.8 0 0 0 .357 1.073c0 .005 0 .012.008.017s.013.01.019.017a1.815 1.815 0 0 0 1.437.717H34.65a1.815 1.815 0 0 0 1.442-.72c0-.006.012-.008.016-.014s0-.012.009-.017a1.8 1.8 0 0 0 .357-1.073V13.984c0-.013-.007-.024-.008-.036zM17.872 1.345a.583.583 0 0 1 .725 0L20 2.434h-3.527zM1.976 35.261l15.9-12.347a.584.584 0 0 1 .725 0L34.5 35.261zm33.282-.948L19.345 21.954a1.8 1.8 0 0 0-2.217 0L1.215 34.313V14.91l9.962 7.736a.608.608 0 0 0 .745-.961L1.8 13.826 6.078 10.5v4.7a.608.608 0 1 0 1.216 0V4.257A.608.608 0 0 1 7.9 3.65h20.671a.608.608 0 0 1 .608.608V15.2a.608.608 0 1 0 1.216 0v-4.7l4.277 3.323L24.533 21.7a.608.608 0 1 0 .745.96l9.979-7.749v19.4z" class="cls-1" data-name="Path 324" transform="translate(-.001 -.004)"/>
            </g>
        </g>
    </g>
</svg>
