<svg xmlns="http://www.w3.org/2000/svg" id="Group_52" width="53.765" height="51.848" data-name="Group 52" viewBox="0 0 53.765 51.848">
    <defs>
        <style>
            .cls-1{fill:#ef513c}
        </style>
    </defs>
    <path id="Path_219" d="M52.61 6.227H12.851A1.155 1.155 0 0 0 11.7 7.382v22.959H1.155A1.155 1.155 0 0 0 0 31.5v19.571a7.011 7.011 0 0 0 7 7h39.762a7.011 7.011 0 0 0 7-7V7.382a1.155 1.155 0 0 0-1.152-1.155zM2.31 51.071v-18.42h9.39v18.42a4.693 4.693 0 1 1-9.386 0zm49.145 0a4.7 4.7 0 0 1-4.693 4.693H12.2a6.977 6.977 0 0 0 1.81-4.693V8.537h37.445v42.534z" class="cls-1" data-name="Path 219" transform="translate(0 -6.227)"/>
    <path id="Path_220" d="M195.678 80.165h14.8a1.155 1.155 0 0 0 0-2.31h-14.8a1.155 1.155 0 0 0 0 2.31z" class="cls-1" data-name="Path 220" transform="translate(-164.57 -66.825)"/>
    <path id="Path_221" d="M195.678 162.558h14.8a1.155 1.155 0 0 0 0-2.31h-14.8a1.155 1.155 0 0 0 0 2.31z" class="cls-1" data-name="Path 221" transform="translate(-164.57 -136.531)"/>
    <path id="Path_222" d="M195.678 244.953h14.8a1.155 1.155 0 1 0 0-2.31h-14.8a1.155 1.155 0 1 0 0 2.31z" class="cls-1" data-name="Path 222" transform="translate(-164.57 -206.239)"/>
    <path id="Path_223" d="M116.974 52.421a1.156 1.156 0 0 0 .84.362h.01a1.155 1.155 0 0 0 .843-.376l6.344-6.948A1.155 1.155 0 0 0 123.3 43.9l-5.5 6.03-1.714-1.815a1.155 1.155 0 0 0-1.68 1.586z" class="cls-1" data-name="Path 223" transform="translate(-96.523 -37.782)"/>
    <path id="Path_224" d="M123.3 129.874l-5.5 6.026-1.714-1.814a1.155 1.155 0 0 0-1.679 1.586l2.568 2.719a1.156 1.156 0 0 0 .84.362h.01a1.155 1.155 0 0 0 .843-.376l6.344-6.948a1.155 1.155 0 0 0-1.706-1.557z" class="cls-1" data-name="Path 224" transform="translate(-96.523 -110.516)"/>
    <path id="Path_225" d="M123.3 215.847l-5.505 6.029-1.714-1.814a1.155 1.155 0 0 0-1.679 1.586l2.568 2.719a1.156 1.156 0 0 0 .84.362h.01a1.155 1.155 0 0 0 .843-.376l6.344-6.948a1.155 1.155 0 1 0-1.706-1.557z" class="cls-1" data-name="Path 225" transform="translate(-96.523 -183.251)"/>
</svg>
