<svg xmlns="http://www.w3.org/2000/svg" width="62.391" height="51.846" viewBox="0 0 62.391 51.846">
    <defs>
        <style>
            .cls-1{fill:#ef513c}
        </style>
    </defs>
    <g id="respect" transform="translate(0 -43.262)">
        <g id="Group_56" data-name="Group 56" transform="translate(54.919 48.368)">
            <g id="Group_55" data-name="Group 55">
                <path id="Path_227" d="M452.768 85.526a1.221 1.221 0 1 0 .356.862 1.225 1.225 0 0 0-.356-.862z" class="cls-1" data-name="Path 227" transform="translate(-450.688 -85.169)"/>
            </g>
        </g>
        <g id="Group_58" data-name="Group 58" transform="translate(26.93 77.068)">
            <g id="Group_57" data-name="Group 57">
                <path id="Path_228" d="M223.079 321.052a1.221 1.221 0 1 0 .356.862 1.225 1.225 0 0 0-.356-.862z" class="cls-1" data-name="Path 228" transform="translate(-220.999 -320.695)"/>
            </g>
        </g>
        <g id="Group_60" data-name="Group 60" transform="translate(0 43.261)">
            <g id="Group_59" data-name="Group 59">
                <path id="Path_229" d="M59.952 52.772a1.219 1.219 0 1 0-2.119 1.2 16.371 16.371 0 0 1-2.658 19.617l-.924.924a4.563 4.563 0 0 0-1.04-1.606L40.689 60.39a8.42 8.42 0 0 0 2.24-1.6l2.4-2.4a1.219 1.219 0 0 0-1.724-1.723l-2.4 2.4a5.934 5.934 0 0 1-4.224 1.749h-4.8a1.219 1.219 0 0 0-.862.357l-3.675 3.675a2.8 2.8 0 1 1-3.959-3.959l8.391-8.39a16.4 16.4 0 0 1 19.466-2.742 1.219 1.219 0 1 0 1.182-2.132 18.905 18.905 0 0 0-11.59-2.183A18.572 18.572 0 0 0 31.2 47.97 18.771 18.771 0 0 0 5.5 75.3l.459.459a1.219 1.219 0 0 0 .262.2 4.582 4.582 0 0 0 4.574 4.241h.183v.185a4.589 4.589 0 0 0 4.592 4.59h.183v.185a4.589 4.589 0 0 0 4.592 4.59h.185a4.59 4.59 0 0 0 7.833 3.433l1.7-1.7 2.3 2.3a4.59 4.59 0 0 0 7.831-3.477c.077 0 .153.006.23.006a4.584 4.584 0 0 0 4.586-4.774h.185a4.588 4.588 0 0 0 4.586-4.776h.185a4.59 4.59 0 0 0 4.243-2.838 1.217 1.217 0 0 0 .329-.233l2.362-2.374a18.813 18.813 0 0 0 3.052-22.545zM10.795 77.76a2.155 2.155 0 0 1-1.524-3.679l2.1-2.1a2.155 2.155 0 0 1 3.048 3.048l-2.1 2.1a2.141 2.141 0 0 1-1.524.631zm3.247 4.14a2.155 2.155 0 0 1 0-3.048l2.1-2.1A2.155 2.155 0 0 1 19.19 79.8l-2.1 2.1a2.158 2.158 0 0 1-3.048 0zm4.771 4.771a2.155 2.155 0 0 1 0-3.048l2.1-2.1a2.155 2.155 0 1 1 3.048 3.048l-2.1 2.1a2.157 2.157 0 0 1-3.048 0zm9.919 2.671l-2.1 2.1a2.155 2.155 0 0 1-3.048-3.042l2.1-2.1a2.155 2.155 0 0 1 3.048 3.048zm22.755-11.66a2.155 2.155 0 0 1-3.048 0l-5.072-5.072-4.767-4.771a1.219 1.219 0 0 0-1.724 1.723l9.844 9.844a2.155 2.155 0 1 1-3.048 3.048l-9.847-9.844a1.219 1.219 0 1 0-1.725 1.724l4.77 4.77 5.073 5.072a2.155 2.155 0 1 1-3.043 3.049l-5.073-5.073a1.217 1.217 0 0 0-.311-.225l-1.447-1.447a1.219 1.219 0 0 0-1.726 1.72l6.788 6.787a2.155 2.155 0 1 1-3.048 3.048L31.5 89.457a4.594 4.594 0 0 0-4.291-6.231h-.185a4.588 4.588 0 0 0-4.586-4.776h-.185a4.588 4.588 0 0 0-4.586-4.776h-.185a4.59 4.59 0 0 0-7.833-3.431l-2.1 2.1a4.59 4.59 0 0 0-.676.862 16.334 16.334 0 0 1 22.58-23.547l-7.489 7.489a5.237 5.237 0 0 0 7.406 7.406l3.318-3.318h4.3a8.535 8.535 0 0 0 1.052-.067l13.448 13.467a2.159 2.159 0 0 1-.001 3.048z" class="cls-1" data-name="Path 229" transform="translate(0 -43.261)"/>
            </g>
        </g>
    </g>
</svg>
