<svg xmlns="http://www.w3.org/2000/svg" width="39.183" height="39.293" viewBox="0 0 39.183 39.293">
    <defs>
        <style>
            .cls-1{fill:#ef513c}
        </style>
    </defs>
    <g id="review" transform="translate(-.441)">
        <path id="Path_559" d="M39.521 27.127a1.953 1.953 0 0 0-1.884-1.366h-.865V4.624a.661.661 0 0 0-.661-.661h-9.248V.661A.661.661 0 0 0 26.2 0H1.1a.661.661 0 0 0-.659.661v34.348a.661.661 0 0 0 .661.661h21.824l-.33 1.019a1.982 1.982 0 0 0 3.051 2.218l3.462-2.522a.665.665 0 0 1 .785 0l3.469 2.523a1.983 1.983 0 0 0 3.05-2.219L35.087 32.6a.654.654 0 0 1 .242-.732l3.471-2.521a1.958 1.958 0 0 0 .721-2.22zM35.45 5.284v20.477h-2.107a.656.656 0 0 1-.2-.034.673.673 0 0 1-.423-.422l-1.328-4.083a1.982 1.982 0 0 0-3.765 0l-.76 2.334v-6.382h5.284a.661.661 0 0 0 0-1.321h-5.288v-2.642h5.284a.661.661 0 1 0 0-1.321h-5.284V9.248h5.284a.661.661 0 1 0 0-1.321h-5.284V5.284zM1.762 34.348V1.321h23.78v24.44h-4.168a1.982 1.982 0 0 0-1.168 3.586l3.474 2.523a.655.655 0 0 1 .243.735l-.567 1.743zm36.264-6.069L34.552 30.8a1.971 1.971 0 0 0-.721 2.211l1.327 4.089a.66.66 0 0 1-1.017.741l-3.471-2.53a2 2 0 0 0-2.334 0l-3.467 2.523a.66.66 0 0 1-1.018-.74l1.327-4.08a1.972 1.972 0 0 0-.722-2.214l-3.472-2.52a.661.661 0 0 1 .39-1.2h4.294a1.847 1.847 0 0 0 .8-.173l.013-.007h.012c.009 0 .016-.012.025-.017a1.961 1.961 0 0 0 1.037-1.167l1.328-4.082a.66.66 0 0 1 1.255 0l1.328 4.085a1.982 1.982 0 0 0 1.881 1.365h4.294a.661.661 0 0 1 .39 1.2zm0 0" class="cls-1" data-name="Path 559"/>
        <path id="Path_560" d="M65.1 65.321h14.534a.661.661 0 1 0 0-1.321H65.1a.661.661 0 0 0 0 1.321zm0 0" class="cls-1" data-name="Path 560" transform="translate(-58.716 -58.716)"/>
        <path id="Path_561" d="M65.1 129.321h14.534a.661.661 0 1 0 0-1.321H65.1a.661.661 0 1 0 0 1.321zm0 0" class="cls-1" data-name="Path 561" transform="translate(-58.716 -117.431)"/>
        <path id="Path_562" d="M65.1 193.321h14.534a.661.661 0 1 0 0-1.321H65.1a.661.661 0 1 0 0 1.321zm0 0" class="cls-1" data-name="Path 562" transform="translate(-58.716 -176.147)"/>
        <path id="Path_563" d="M80.294 256.661a.661.661 0 0 0-.661-.661H65.1a.661.661 0 1 0 0 1.321h14.534a.661.661 0 0 0 .66-.66zm0 0" class="cls-1" data-name="Path 563" transform="translate(-58.716 -234.863)"/>
    </g>
</svg>
