<svg xmlns="http://www.w3.org/2000/svg" width="53.765" height="54.311" viewBox="0 0 53.765 54.311">
    <defs>
        <style>
            .cls-1{fill:#ef513c}
        </style>
    </defs>
    <g id="wallet" transform="translate(-1.681)">
        <path id="Path_226" d="M55.446 25.3H52.84V13.313A5.217 5.217 0 0 0 47.629 8.1H44.1l-3.612-6.492A3.127 3.127 0 0 0 36.235.394L22.375 8.1H6.892a5.217 5.217 0 0 0-5.211 5.211V49.1a5.217 5.217 0 0 0 5.211 5.21h40.737a5.217 5.217 0 0 0 5.211-5.21V38.589h2.606V25.3zm-7.817-15.114a3.121 3.121 0 0 1 3.092 2.78H46.8l-1.545-2.78zm-10.38-7.97a1.062 1.062 0 0 1 1.416.4l5.753 10.345h-26.5zM50.756 49.1a3.131 3.131 0 0 1-3.127 3.127H6.892A3.131 3.131 0 0 1 3.765 49.1V13.313a3.131 3.131 0 0 1 3.127-3.127h11.735l-5 2.78H7.544a1.042 1.042 0 0 0 0 2.085h43.212V25.3h-7.623a6.429 6.429 0 0 0-6.421 6.421v.448a6.429 6.429 0 0 0 6.421 6.421h7.622V49.1zm2.605-12.6H43.133a4.341 4.341 0 0 1-4.333-4.331v-.449a4.341 4.341 0 0 1 4.336-4.336h10.225zm-7.035-4.47a2.3 2.3 0 1 1-2.3-2.3 2.3 2.3 0 0 1 2.3 2.3z" class="cls-1" data-name="Path 226"/>
    </g>
</svg>
